<svg width="24" height="24" viewBox="0 0 24 24" fill="none" xmlns="http://www.w3.org/2000/svg">
<path d="M19.4281 15.428C19.1489 15.1488 18.7933 14.9584 18.4061 14.881L16.0191 14.404C14.7108 14.1424 13.3525 14.3243 12.1591 14.921L11.8411 15.079C10.6477 15.6757 9.2895 15.8576 7.98114 15.596L6.05014 15.21C5.72734 15.1455 5.39361 15.1617 5.07857 15.2571C4.76353 15.3525 4.47691 15.5242 4.24414 15.757M8.00014 4H16.0001L15.0001 5V10.172C15.0003 10.7024 15.211 11.211 15.5861 11.586L20.5861 16.586C21.8461 17.846 20.9531 20 19.1711 20H4.82814C3.04614 20 2.15414 17.846 3.41414 16.586L8.41414 11.586C8.78924 11.211 9.00003 10.7024 9.00014 10.172V5L8.00014 4Z" stroke="#939393" stroke-width="2" stroke-linecap="round" stroke-linejoin="round"/>
</svg>
