<svg width="24" height="24" viewBox="0 0 24 24" fill="none" xmlns="http://www.w3.org/2000/svg">
<path d="M6.99959 15.9995C6.0146 16.0006 5.06384 15.6383 4.32945 14.9819C3.59507 14.3254 3.1287 13.4211 3.0197 12.4422C2.91069 11.4633 3.16672 10.4785 3.73872 9.67665C4.31072 8.87477 5.15848 8.31214 6.11959 8.09654C5.84151 6.79963 6.09001 5.44537 6.81043 4.33169C7.53085 3.218 8.66418 2.43612 9.96109 2.15804C11.258 1.87996 12.6123 2.12846 13.7259 2.84889C14.8396 3.56931 15.6215 4.70263 15.8996 5.99954H15.9996C17.2395 5.99829 18.4357 6.45782 19.3559 7.28891C20.2761 8.12001 20.8547 9.26337 20.9793 10.497C21.1039 11.7307 20.7657 12.9667 20.0303 13.965C19.2949 14.9633 18.2147 15.6528 16.9996 15.8995M14.9996 12.9995L11.9996 9.99954M11.9996 9.99954L8.99959 12.9995M11.9996 9.99954V21.9995" stroke="#939393" stroke-width="2" stroke-linecap="round" stroke-linejoin="round"/>
</svg>
