<svg width="24" height="24" viewBox="0 0 24 24" fill="none" xmlns="http://www.w3.org/2000/svg">
<path d="M12 10.9998C12 14.5168 10.991 17.7988 9.247 20.5708M5.807 18.5308L5.861 18.4408C7.26352 16.2128 8.00523 13.6326 8 10.9998C8 9.93898 8.42143 8.92156 9.17157 8.17142C9.92172 7.42127 10.9391 6.99984 12 6.99984C13.0609 6.99984 14.0783 7.42127 14.8284 8.17142C15.5786 8.92156 16 9.93898 16 10.9998C16 12.0168 15.93 13.0188 15.797 13.9998M13.679 20.8438C14.2962 19.6123 14.7958 18.3253 15.171 16.9998M19.01 18.1318C19.655 15.8658 20 13.4728 20 10.9998C20.0003 9.5954 19.6309 8.21562 18.9289 6.99921C18.2269 5.78281 17.217 4.77265 16.0008 4.07029C14.7846 3.36793 13.4049 2.99813 12.0004 2.99805C10.596 2.99797 9.21629 3.36762 8 4.06984M3 15.3638C3.64 14.0448 4 12.5638 4 10.9998C4 9.54284 4.39 8.17684 5.07 6.99984" stroke="#939393" stroke-width="2" stroke-linecap="round" stroke-linejoin="round"/>
</svg>
