<svg width="24" height="24" viewBox="0 0 24 24" fill="none" xmlns="http://www.w3.org/2000/svg">
<path d="M13.8283 10.1717C13.0782 9.42179 12.061 9.00053 11.0003 9.00053C9.93967 9.00053 8.92244 9.42179 8.17232 10.1717L4.17232 14.1717C3.79028 14.5407 3.48556 14.982 3.27592 15.4701C3.06628 15.9581 2.95594 16.483 2.95132 17.0141C2.94671 17.5452 3.04791 18.0719 3.24904 18.5635C3.45016 19.0551 3.74717 19.5017 4.12274 19.8773C4.49832 20.2528 4.94492 20.5498 5.43651 20.751C5.92809 20.9521 6.45481 21.0533 6.98593 21.0487C7.51705 21.0441 8.04193 20.9337 8.52994 20.7241C9.01796 20.5144 9.45934 20.2097 9.82832 19.8277L10.9303 18.7267M10.1723 13.8277C10.9224 14.5776 11.9397 14.9988 13.0003 14.9988C14.061 14.9988 15.0782 14.5776 15.8283 13.8277L19.8283 9.82768C20.557 9.07327 20.9601 8.06286 20.951 7.01407C20.9419 5.96528 20.5212 4.96203 19.7796 4.2204C19.038 3.47877 18.0347 3.05809 16.9859 3.04898C15.9371 3.03987 14.9267 3.44304 14.1723 4.17168L13.0723 5.27168" stroke="#939393" stroke-width="2" stroke-linecap="round" stroke-linejoin="round"/>
</svg>
