<svg width="24" height="24" viewBox="0 0 24 24" fill="none" xmlns="http://www.w3.org/2000/svg">
<path d="M3 18.9996V10.0696C2.99995 9.74043 3.08116 9.41633 3.23641 9.12605C3.39166 8.83578 3.61617 8.58832 3.89 8.40562L10.89 3.73962C11.2187 3.52034 11.6049 3.40332 12 3.40332C12.3951 3.40332 12.7813 3.52034 13.11 3.73962L20.11 8.40562C20.3838 8.58832 20.6083 8.83578 20.7636 9.12605C20.9188 9.41633 21 9.74043 21 10.0696V18.9996M3 18.9996C3 19.5301 3.21071 20.0388 3.58579 20.4138C3.96086 20.7889 4.46957 20.9996 5 20.9996H19C19.5304 20.9996 20.0391 20.7889 20.4142 20.4138C20.7893 20.0388 21 19.5301 21 18.9996M3 18.9996L9.75 14.4996M21 18.9996L14.25 14.4996M9.75 14.4996L3 9.99962M9.75 14.4996L10.89 15.2596C11.2187 15.4789 11.6049 15.5959 12 15.5959C12.3951 15.5959 12.7813 15.4789 13.11 15.2596L14.25 14.4996M14.25 14.4996L21 9.99962" stroke="#939393" stroke-width="2" stroke-linecap="round" stroke-linejoin="round"/>
</svg>
