<svg width="24" height="24" viewBox="0 0 24 24" fill="none" xmlns="http://www.w3.org/2000/svg">
<path d="M15.1948 15.8222C16.9232 16.1753 18.7173 16.0127 20.3541 15.3545C19.6841 17.0218 18.5304 18.4505 17.0417 19.4567C15.5529 20.4629 13.797 21.0005 12.0001 21.0005C9.9105 20.9982 7.88674 20.2692 6.27577 18.9383C4.6648 17.6074 3.56695 15.7575 3.17043 13.7059C2.77391 11.6542 3.1034 9.52854 4.10244 7.6932C5.10148 5.85787 6.70782 4.42722 8.64611 3.64648C7.98791 5.28326 7.82527 7.07738 8.17839 8.80584C8.53151 10.5343 9.38484 12.1209 10.6323 13.3683C11.8797 14.6158 13.4663 15.4691 15.1948 15.8222Z" stroke="#939393" stroke-width="2" stroke-linecap="round" stroke-linejoin="round"/>
</svg>
