<svg width="24" height="24" viewBox="0 0 24 24" fill="none" xmlns="http://www.w3.org/2000/svg">
<path d="M15.1715 6.99968L8.58553 13.5857C8.39451 13.7702 8.24215 13.9909 8.13733 14.2349C8.03251 14.4789 7.97734 14.7413 7.97503 15.0069C7.97272 15.2724 8.02333 15.5358 8.12389 15.7816C8.22445 16.0274 8.37296 16.2507 8.56074 16.4385C8.74853 16.6263 8.97183 16.7748 9.21762 16.8753C9.46342 16.9759 9.72678 17.0265 9.99233 17.0242C10.2579 17.0219 10.5203 16.9667 10.7643 16.8619C11.0083 16.7571 11.229 16.6047 11.4135 16.4137L17.8275 9.82768C18.5562 9.07327 18.9593 8.06286 18.9502 7.01407C18.9411 5.96528 18.5204 4.96203 17.7788 4.2204C17.0372 3.47877 16.0339 3.05809 14.9851 3.04898C13.9363 3.03987 12.9259 3.44304 12.1715 4.17168L5.75653 10.7567C4.63122 11.882 3.99902 13.4082 3.99902 14.9997C3.99902 16.5911 4.63122 18.1174 5.75653 19.2427C6.88184 20.368 8.4081 21.0002 9.99953 21.0002C11.591 21.0002 13.1172 20.368 14.2425 19.2427L20.4995 12.9997" stroke="#939393" stroke-width="2" stroke-linecap="round" stroke-linejoin="round"/>
</svg>
