<svg width="24" height="24" viewBox="0 0 24 24" fill="none" xmlns="http://www.w3.org/2000/svg">
<path d="M11.555 9.03632L14.752 11.1683C14.889 11.2596 15.0013 11.3844 15.0789 11.5295C15.1566 11.6746 15.1972 11.8367 15.1972 12.0013C15.1972 12.1659 15.1566 12.328 15.0789 12.4731C15.0013 12.6183 14.889 12.742 14.752 12.8333L11.555 14.9653C11.4044 15.0658 11.2293 15.1235 11.0485 15.1323C10.8677 15.1411 10.6879 15.1006 10.5282 15.0152C10.3686 14.9298 10.2352 14.8026 10.1421 14.6473C10.0491 14.492 9.99998 14.3144 10 14.1333V9.87032C9.99961 9.6891 10.0485 9.51119 10.1414 9.35559C10.2342 9.2 10.3677 9.07256 10.5274 8.98691C10.687 8.90126 10.867 8.86062 11.048 8.86932C11.229 8.87802 11.4043 8.93574 11.555 9.03632Z" stroke="#939393" stroke-width="2" stroke-linecap="round" stroke-linejoin="round"/>
<path d="M20.3149 15.4442C20.7672 14.3522 21 13.1819 21 12C21 9.61305 20.0518 7.32387 18.364 5.63604C16.6761 3.94821 14.3869 3 12 3C9.61305 3 7.32387 3.94821 5.63604 5.63604C3.94821 7.32387 3 9.61305 3 12C3 13.1819 3.23279 14.3522 3.68508 15.4442C4.13738 16.5361 4.80031 17.5282 5.63604 18.364C6.47177 19.1997 7.46392 19.8626 8.55585 20.3149C9.64778 20.7672 10.8181 21 12 21C13.1819 21 14.3522 20.7672 15.4442 20.3149C16.5361 19.8626 17.5282 19.1997 18.364 18.364C19.1997 17.5282 19.8626 16.5361 20.3149 15.4442Z" stroke="#939393" stroke-width="2" stroke-linecap="round" stroke-linejoin="round"/>
</svg>
