<svg width="24" height="24" viewBox="0 0 24 24" fill="none" xmlns="http://www.w3.org/2000/svg">
<path d="M14.1208 14.1208L18.9998 18.9998M11.9998 11.9998L18.9998 4.99978M11.9998 11.9998L9.12078 14.8788M11.9998 11.9998L9.12078 9.12078M9.12078 14.8788C8.55812 14.3161 7.79499 14 6.99928 14C6.20356 14 5.44043 14.3161 4.87778 14.8788C4.31512 15.4414 3.99902 16.2046 3.99902 17.0003C3.99902 17.796 4.31512 18.5591 4.87778 19.1218C5.44043 19.6844 6.20356 20.0005 6.99928 20.0005C7.79499 20.0005 8.55812 19.6844 9.12078 19.1218C9.68343 18.5591 9.99953 17.796 9.99953 17.0003C9.99953 16.2046 9.68343 15.4414 9.12078 14.8788ZM9.12078 9.12078C9.68343 8.55812 9.99953 7.79499 9.99953 6.99928C9.99953 6.20356 9.68343 5.44043 9.12078 4.87778C8.55812 4.31512 7.79499 3.99902 6.99928 3.99902C6.20356 3.99902 5.44043 4.31512 4.87778 4.87778C4.31512 5.44043 3.99902 6.20356 3.99902 6.99928C3.99902 7.79499 4.31512 8.55812 4.87778 9.12078C5.44043 9.68343 6.20356 9.99953 6.99928 9.99953C7.79499 9.99953 8.55812 9.68343 9.12078 9.12078Z" stroke="#939393" stroke-width="2" stroke-linecap="round" stroke-linejoin="round"/>
</svg>
