<svg width="24" height="24" viewBox="0 0 24 24" fill="none" xmlns="http://www.w3.org/2000/svg">
<path d="M8.68408 13.3424C8.88608 12.9384 9.00008 12.4824 9.00008 12.0004C9.00008 11.5184 8.88608 11.0624 8.68408 10.6584M8.68408 13.3424C8.38178 13.9467 7.88428 14.4314 7.27217 14.7177C6.66007 15.0041 5.96921 15.0754 5.31152 14.9201C4.65384 14.7648 4.06785 14.3919 3.64849 13.862C3.22914 13.3321 3.00098 12.6761 3.00098 12.0004C3.00098 11.3246 3.22914 10.6686 3.64849 10.1387C4.06785 9.60877 4.65384 9.23596 5.31152 9.08066C5.96921 8.92535 6.66007 8.99665 7.27217 9.283C7.88428 9.56934 8.38178 10.054 8.68408 10.6584M8.68408 13.3424L15.3161 16.6584M8.68408 10.6584L15.3161 7.34236M15.3161 16.6584C14.9602 17.3702 14.9016 18.1943 15.1533 18.9493C15.4049 19.7043 15.9462 20.3284 16.6581 20.6844C17.3699 21.0403 18.194 21.0988 18.949 20.8472C19.704 20.5955 20.3282 20.0542 20.6841 19.3424C21.04 18.6305 21.0986 17.8064 20.8469 17.0514C20.5952 16.2964 20.0539 15.6723 19.3421 15.3164C18.9896 15.1401 18.6059 15.035 18.2128 15.0071C17.8197 14.9792 17.425 15.0289 17.0511 15.1535C16.2961 15.4052 15.672 15.9465 15.3161 16.6584ZM15.3161 7.34236C15.4923 7.69476 15.7362 8.009 16.0339 8.26714C16.3316 8.52527 16.6772 8.72225 17.051 8.84682C17.4248 8.97139 17.8195 9.02111 18.2125 8.99315C18.6055 8.96519 18.9892 8.86009 19.3416 8.68386C19.694 8.50762 20.0082 8.26371 20.2664 7.96603C20.5245 7.66835 20.7215 7.32274 20.846 6.94894C20.9706 6.57514 21.0203 6.18046 20.9924 5.78744C20.9644 5.39442 20.8593 5.01076 20.6831 4.65836C20.3272 3.94665 19.7031 3.40548 18.9482 3.1539C18.1932 2.90232 17.3693 2.96094 16.6576 3.31686C15.9459 3.67278 15.4047 4.29685 15.1531 5.05177C14.9015 5.8067 14.9602 6.63065 15.3161 7.34236Z" stroke="#939393" stroke-width="2" stroke-linecap="round" stroke-linejoin="round"/>
</svg>
