<svg width="24" height="24" viewBox="0 0 24 24" fill="none" xmlns="http://www.w3.org/2000/svg">
<path d="M11.0005 5.882V19.24C11.0002 19.6545 10.8536 20.0555 10.5866 20.3725C10.3196 20.6896 9.94929 20.9022 9.5409 20.9729C9.13252 21.0437 8.71227 20.968 8.35418 20.7593C7.9961 20.5506 7.72316 20.2222 7.58346 19.832L5.43646 13.682M5.43646 13.682C4.58767 13.3211 3.88964 12.6791 3.46049 11.8627C3.03133 11.0463 2.89741 10.1067 3.08139 9.2029C3.26537 8.29912 3.75595 7.48665 4.47011 6.903C5.18426 6.31935 6.07814 6.00035 7.00046 6H8.83246C12.9325 6 16.4575 4.766 18.0005 3V17C16.4575 15.234 12.9335 14 8.83246 14H7.00046C6.46309 14.0008 5.93111 13.892 5.43646 13.682ZM18.0005 13C18.7961 13 19.5592 12.6839 20.1218 12.1213C20.6844 11.5587 21.0005 10.7956 21.0005 10C21.0005 9.20435 20.6844 8.44129 20.1218 7.87868C19.5592 7.31607 18.7961 7 18.0005 7V13Z" stroke="#939393" stroke-width="2" stroke-linecap="round" stroke-linejoin="round"/>
</svg>
