<svg width="24" height="24" viewBox="0 0 24 24" fill="none" xmlns="http://www.w3.org/2000/svg">
<path d="M12.9511 2.92708C12.6521 2.00608 11.3491 2.00608 11.0491 2.92708L9.5301 7.60108C9.46467 7.80173 9.33744 7.97654 9.16662 8.10048C8.9958 8.22442 8.79014 8.29113 8.5791 8.29108H3.6651C2.6971 8.29108 2.2931 9.53108 3.0771 10.1011L7.0531 12.9891C7.22389 13.1132 7.351 13.2883 7.4162 13.4891C7.48141 13.6899 7.48137 13.9063 7.4161 14.1071L5.8981 18.7811C5.5981 19.7021 6.6531 20.4691 7.4361 19.8991L11.4121 17.0111C11.583 16.8869 11.7888 16.8199 12.0001 16.8199C12.2114 16.8199 12.4172 16.8869 12.5881 17.0111L16.5641 19.8991C17.3471 20.4691 18.4021 19.7031 18.1021 18.7811L16.5841 14.1071C16.5188 13.9063 16.5188 13.6899 16.584 13.4891C16.6492 13.2883 16.7763 13.1132 16.9471 12.9891L20.9231 10.1011C21.7061 9.53108 21.3041 8.29108 20.3351 8.29108H15.4201C15.2092 8.29092 15.0038 8.22411 14.8332 8.10018C14.6625 7.97626 14.5355 7.80157 14.4701 7.60108L12.9511 2.92708Z" stroke="#939393" stroke-width="2" stroke-linecap="round" stroke-linejoin="round"/>
</svg>
