<svg width="24" height="24" viewBox="0 0 24 24" fill="none" xmlns="http://www.w3.org/2000/svg">
<path d="M5.63608 18.3637C4.80034 17.528 4.13739 16.5359 3.68509 15.4439C3.2328 14.352 3 13.1816 3 11.9997C3 10.8178 3.2328 9.6475 3.68509 8.55557C4.13739 7.46363 4.80034 6.47147 5.63608 5.63574M18.3641 5.63574C19.1998 6.47147 19.8628 7.46363 20.3151 8.55557C20.7674 9.6475 21.0002 10.8178 21.0002 11.9997C21.0002 13.1816 20.7674 14.352 20.3151 15.4439C19.8628 16.5359 19.1998 17.528 18.3641 18.3637M8.46408 15.5347C7.52672 14.5971 7.00015 13.3256 7.00015 11.9997C7.00015 10.6739 7.52672 9.40238 8.46408 8.46474M15.5361 8.46474C16.4734 9.40238 17 10.6739 17 11.9997C17 13.3256 16.4734 14.5971 15.5361 15.5347M13.0001 11.9997C13.0001 12.265 12.8947 12.5193 12.7072 12.7068C12.5196 12.8944 12.2653 12.9997 12.0001 12.9997C11.7349 12.9997 11.4805 12.8944 11.293 12.7068C11.1054 12.5193 11.0001 12.265 11.0001 11.9997C11.0001 11.7345 11.1054 11.4802 11.293 11.2926C11.4805 11.1051 11.7349 10.9997 12.0001 10.9997C12.2653 10.9997 12.5196 11.1051 12.7072 11.2926C12.8947 11.4802 13.0001 11.7345 13.0001 11.9997Z" stroke="#939393" stroke-width="2" stroke-linecap="round" stroke-linejoin="round"/>
</svg>
