<svg width="24" height="24" viewBox="0 0 24 24" fill="none" xmlns="http://www.w3.org/2000/svg">
<path d="M18.3637 5.636C19.1995 6.47173 19.8624 7.46389 20.3147 8.55582C20.767 9.64776 20.9998 10.8181 20.9998 12C20.9998 13.1819 20.767 14.3522 20.3147 15.4442C19.8624 16.5361 19.1995 17.5283 18.3637 18.364M18.3637 18.364L15.5347 15.535M18.3637 18.364L20.9997 21M15.5357 8.464C16.0002 8.92831 16.3686 9.47956 16.6199 10.0863C16.8713 10.693 17.0007 11.3433 17.0007 12C17.0007 12.6567 16.8713 13.307 16.6199 13.9137C16.3686 14.5204 16.0002 15.0717 15.5357 15.536L12.7067 12.707M12.7067 12.707C12.8022 12.6148 12.8784 12.5044 12.9308 12.3824C12.9832 12.2604 13.0108 12.1292 13.012 11.9964C13.0131 11.8636 12.9878 11.7319 12.9375 11.609C12.8873 11.4861 12.813 11.3745 12.7191 11.2806C12.6252 11.1867 12.5136 11.1125 12.3907 11.0622C12.2678 11.0119 12.1361 10.9866 12.0033 10.9877C11.8705 10.9889 11.7393 11.0165 11.6173 11.0689C11.4953 11.1213 11.385 11.1975 11.2927 11.293M12.7067 12.707L11.2927 11.293M8.46373 15.536C7.69721 14.7715 7.2008 13.778 7.04973 12.706M5.63573 18.364C4.44994 17.1788 3.61877 15.686 3.23589 14.0538C2.85301 12.4216 2.93365 10.7148 3.46873 9.126M11.2927 11.293L2.99973 3" stroke="#939393" stroke-width="2" stroke-linecap="round" stroke-linejoin="round"/>
</svg>
