<svg width="24" height="24" viewBox="0 0 24 24" fill="none" xmlns="http://www.w3.org/2000/svg">
<path d="M16.9993 4L13.2393 3.06C13.0807 3.02025 12.9178 3.0001 12.7543 3H8.73626C8.36477 3.00001 8.00062 3.10349 7.68463 3.29884C7.36865 3.49419 7.11332 3.77369 6.94726 4.106L3.44726 11.106C3.29489 11.4109 3.22299 11.7497 3.23837 12.0902C3.25374 12.4308 3.3559 12.7617 3.53513 13.0516C3.71437 13.3416 3.96473 13.5809 4.26246 13.7469C4.56019 13.9129 4.89539 14 5.23626 14H10.0003H12.0003M16.9993 4L17.0003 13L13.6083 18.088C13.2113 18.683 13.0003 19.381 13.0003 20.096C13.0003 20.595 12.5953 21 12.0953 21H11.9993C11.4688 21 10.9601 20.7893 10.585 20.4142C10.21 20.0391 9.99926 19.5304 9.99926 19V14M16.9993 4H19.0003C19.5307 4 20.0394 4.21071 20.4145 4.58579C20.7895 4.96086 21.0003 5.46957 21.0003 6V12C21.0003 12.5304 20.7895 13.0391 20.4145 13.4142C20.0394 13.7893 19.5307 14 19.0003 14H16.5003" stroke="#939393" stroke-width="2" stroke-linecap="round" stroke-linejoin="round"/>
</svg>
