<svg width="279" height="40" viewBox="0 0 279 40" fill="none" xmlns="http://www.w3.org/2000/svg">
<path fill-rule="evenodd" clip-rule="evenodd" d="M55.9976 24.7599H61.6984C66.2888 24.7599 69.6605 23.7066 71.8591 21.8967C74.0112 20.1251 75.2388 17.4643 75.2388 13.7669V13.5501C75.2388 9.74347 74.1108 6.98273 71.9746 5.14039C69.7978 3.263 66.3274 2.12359 61.2106 2.12359H47.9955V37.8222H55.9976V24.7599ZM55.9976 20.2266V7.4157H60.777C62.6662 7.4157 64.4383 7.77703 65.7536 8.85058C67.1318 9.9754 67.7245 11.6416 67.7245 13.6043V13.8211C67.7245 15.7274 67.149 17.4151 65.8167 18.6005C64.5152 19.7584 62.7251 20.2266 60.7228 20.2266H55.9976ZM91.355 32.3133V22.2124H103.875V17.3539H91.355V7.6325H107.073V2.12359H83.3528V37.8222H107.94V32.3133H91.355ZM123.241 9.3444L139.683 37.6423C139.684 37.6439 139.685 37.6454 139.686 37.6469C139.742 37.7353 139.896 37.8222 139.999 37.8222H148.119V2.12359H141.472V28.2264L126.76 2.29561C126.702 2.20838 126.551 2.12359 126.449 2.12359H116.54V37.8222H123.241V9.3444ZM138.373 38.4282L124.769 15.0135V38.2656C124.769 38.916 124.335 39.3496 123.685 39.3496H116.097C115.446 39.3496 115.013 38.916 115.013 38.2656V1.68021C115.013 1.02981 115.446 0.596204 116.097 0.596204H126.449C127.099 0.596204 127.75 0.975609 128.075 1.51761L139.945 22.439V1.68021C139.945 1.02981 140.379 0.596204 141.029 0.596204H148.563C149.213 0.596204 149.647 1.02981 149.647 1.68021V38.2656C149.647 38.916 149.213 39.3496 148.563 39.3496H139.999C139.349 39.3496 138.698 38.9702 138.373 38.4282ZM34.306 33.3512C37.5873 30.1499 39.5024 25.5481 39.5024 19.9458V19.5122C39.5024 13.8863 37.4737 9.44282 34.1565 6.39589C30.8247 3.33555 26.0787 1.58159 20.4878 1.58159C9.64354 1.58159 1.52739 8.89727 1.52739 19.7832V20.2168C1.52739 25.6955 3.35556 30.2309 6.54332 33.3941C9.73032 36.5566 14.4029 38.4726 20.3252 38.4726C26.2495 38.4726 31.0221 36.555 34.306 33.3512ZM12.8801 29.3324C11.0272 27.0865 10.0715 23.9287 10.0715 20.1626V19.729C10.0715 15.9792 10.9788 12.8427 12.8109 10.6151C14.6746 8.3491 17.3532 7.1989 20.4878 7.1989C23.6337 7.1989 26.3193 8.38397 28.1894 10.646C30.0312 12.8739 30.9583 15.9932 30.9583 19.6748V20.1084C30.9583 23.8091 30.0489 26.9737 28.2324 29.2463C26.3844 31.5584 23.71 32.8011 20.542 32.8011C17.4423 32.8011 14.7593 31.6103 12.8801 29.3324ZM41.0298 19.9458C41.0298 31.8699 32.8455 40 20.3252 40C7.80488 40 0 31.8699 0 20.2168V19.7832C0 7.96748 8.88889 0.0541992 20.4878 0.0541992C32.3035 0.0541992 41.0298 7.47968 41.0298 19.5122V19.9458ZM11.5989 20.1626C11.5989 27.2087 15.1762 31.2737 20.542 31.2737C26.0163 31.2737 29.4309 27.0461 29.4309 20.1084V19.6748C29.4309 12.7913 25.9621 8.72629 20.4878 8.72629C15.0135 8.72629 11.5989 12.6829 11.5989 19.729V20.1626ZM47.5521 39.3496C46.9017 39.3496 46.4681 38.916 46.4681 38.2656V1.68021C46.4681 1.02981 46.9017 0.596204 47.5521 0.596204H61.2106C71.8339 0.596204 76.7662 5.31165 76.7662 13.5501V13.7669C76.7662 21.897 71.2919 26.2873 61.6984 26.2873H57.525V38.2656C57.525 38.916 57.0914 39.3496 56.441 39.3496H47.5521ZM57.525 18.6992H60.7228C64.3001 18.6992 66.1971 17.019 66.1971 13.8211V13.6043C66.1971 10.2981 64.2459 8.94309 60.777 8.94309H57.525V18.6992ZM81.8255 38.2656C81.8255 38.916 82.2591 39.3496 82.9095 39.3496H108.384C109.034 39.3496 109.468 38.916 109.468 38.2656V31.8699C109.468 31.2195 109.034 30.7859 108.384 30.7859H92.8824V23.7398H104.319C104.969 23.7398 105.403 23.3062 105.403 22.6558V16.9106C105.403 16.2602 104.969 15.8266 104.319 15.8266H92.8824V9.15989H107.517C108.167 9.15989 108.601 8.72629 108.601 8.07588V1.68021C108.601 1.02981 108.167 0.596204 107.517 0.596204H82.9095C82.2591 0.596204 81.8255 1.02981 81.8255 1.68021V38.2656Z" fill="#5A5A5A"/>
<path d="M192.478 25.8537C192.586 25.2032 192.153 24.7696 191.502 24.7696H182.613C181.963 24.7696 181.475 25.2032 181.367 25.8537C180.5 29.3767 177.898 31.1111 174.321 31.1111C169.009 31.1111 166.028 27.1545 166.028 20.1626V19.729C166.028 12.6829 169.172 8.78049 174.158 8.78049C177.681 8.78049 179.795 10.5691 180.5 13.8211C180.608 14.4715 181.096 14.9051 181.746 14.9051H191.014C191.665 14.9051 192.044 14.4715 191.99 13.8211C190.689 4.33604 183.806 0 174.104 0C162.776 0 154.321 7.85908 154.321 19.7832V20.2168C154.321 32.0867 160.987 40 174.537 40C184.185 40 191.285 35.1761 192.478 25.8537Z" fill="#5A5A5A"/>
<path d="M197.453 38.2656C197.453 38.916 197.886 39.3496 198.537 39.3496H207.426C208.076 39.3496 208.51 38.916 208.51 38.2656V25.4743H211.111L218.428 38.4282C218.754 38.9702 219.404 39.3496 220.055 39.3496H229.594C230.244 39.3496 230.461 38.9702 230.136 38.4282L221.41 23.3062C225.475 21.7344 228.401 18.645 228.401 13.1165V12.8997C228.401 4.71544 222.765 0.596205 212.629 0.596205H198.537C197.886 0.596205 197.453 1.02981 197.453 1.68021V38.2656ZM208.51 18.2656V8.94309H212.141C215.718 8.94309 217.67 10.1897 217.67 13.3333V13.5501C217.67 16.6938 215.827 18.2656 212.087 18.2656H208.51Z" fill="#5A5A5A"/>
<path d="M235.245 38.2656C235.245 38.916 235.679 39.3496 236.329 39.3496H244.08C244.73 39.3496 245.164 38.916 245.164 38.2656V15.2304L254.161 38.3198C254.378 38.916 254.974 39.3496 255.624 39.3496H257.142C257.792 39.3496 258.389 38.9702 258.605 38.3198L267.711 15.2304V38.2656C267.711 38.916 268.145 39.3496 268.795 39.3496H277.684C278.334 39.3496 278.768 38.916 278.768 38.2656V1.68021C278.768 1.02981 278.334 0.596205 277.684 0.596205H265.652C265.001 0.596205 264.405 0.97561 264.188 1.62601L257.142 21.2466L250.096 1.62601C249.879 0.97561 249.283 0.596205 248.633 0.596205H236.329C235.679 0.596205 235.245 1.02981 235.245 1.68021V38.2656Z" fill="#5A5A5A"/>
</svg>
