<svg width="120" height="120" viewBox="0 0 120 120" fill="none" xmlns="http://www.w3.org/2000/svg">
<path d="M6.5 92C5 96.5 3 99.5 3 120H117C117 99.5 115 96.5 113.5 92C112 87.5 109 83 102 83C95 83 76.5 78.5 75 71.5C73.5 64.5 74.5 65.5 75.5 63C76.3305 60.9239 76.5 51.5 78 54C79.5 56.5 80 54 81.5 50C83 46 84.5 44.5 83.5 42.5C82.5 40.5 81.5 40.5 80 41.5C80.5 37.5 82 30 82 26.5C82 23 81 19.5 80 17.5C79 15.5 77 14 75.5 14C75.5 11 73.5 9 71.5 8.5C66.476 7.244 66.5 7 59.5 7C52.5 7 50.5 8 48.5 8.5C46.5 9 44.5 11 44.5 14C43 14 41 15.5 40 17.5C39 19.5 38 23 38 26.5C38 30 39.5 37.5 40 41.5C38.5 40.5 37.5 40.5 36.5 42.5C35.5 44.5 37 46 38.5 50C40 54 40.5 56.5 42 54C43.5 51.5 43.6695 60.9239 44.5 63C45.5 65.5 46.5 64.5 45 71.5C43.5 78.5 25 83 18 83C11 83 8 87.5 6.5 92Z" fill="#D9D9D9"/>
</svg>
